# xmcd
#
# Track frame offsets: 
#        150
#        27967
#        53627
#        75165
#        96247
#        116625
#
# Disc length: 1792 seconds
#
# Revision: 0
# Processed by: cddbd v1.4PL0 Copyright (c) Steve Scherf et al.
# Submitted via: ExactAudioCopy v0.90b4
#
DISCID=3c06fe06
DTITLE=Prince - Space - Maxi CD
DYEAR=1994
DGENRE=Soul
TTITLE0=Universal Love RMX
TTITLE1=Funky Stuff RMX
TTITLE2=Funky Stuff Dub
TTITLE3=Acoustic RMX
TTITLE4=Space Album Version
TTITLE5=Universal Love Radio RMX
EXTD=
EXTT0=
EXTT1=
EXTT2=
EXTT3=
EXTT4=
EXTT5=
PLAYORDER=
